<?xml version="1.0" encoding="utf-8"?>
<!-- Generator: YourMum 4.2.0, SVG Export Plug-In . SVG Version: 6.00 Build 0)  -->
<svg xmlns="http://www.w3.org/2000/svg" xmlns:xlink="http://www.w3.org/1999/xlink" version="1.1" id="Capa_1" x="0px" y="0px" viewBox="8 4 84.536 112.75" style="enable-background:new 8 4 84.536 112.75;" xml:space="preserve" overflow="visible" zoomAndPan="disable">

<g>
	<path fill="#FFFFFF" d="M83.858,45.214c0-18.728-15.183-33.91-33.911-33.91s-33.911,15.182-33.911,33.91
		c0,18.728,15.183,33.91,33.911,33.91S83.858,63.942,83.858,45.214z"/>
	<g>
		<defs>
			<path id="XMLID_1_" d="M83.983,45.214c0-18.728-15.183-33.91-33.911-33.91s-33.911,15.182-33.911,33.91
				c0,18.728,15.183,33.91,33.911,33.91S83.983,63.942,83.983,45.214z"/>
		</defs>
		<clipPath id="XMLID_3_">
			<use xlink:href="#XMLID_1_" />
		</clipPath>
		<g clip-path="url(#XMLID_3_)">
			<rect x="52.4" y="1.893" fill="#3D4959" stroke="#FFFFFF" stroke-width="4" width="36.457" height="5.868"/>
			<rect x="53.195" y="28.686" fill="#73CAC5" stroke="#FFFFFF" stroke-width="4" width="13.767" height="5.868"/>
			<rect x="53.195" y="15.289" fill="#73CAC5" stroke="#FFFFFF" stroke-width="4" width="13.767" height="5.868"/>
			<rect x="52.4" y="42.082" fill="#3D4959" stroke="#FFFFFF" stroke-width="4" width="36.457" height="5.868"/>
			<rect x="53.195" y="8.591" fill="#73CAC5" stroke="#FFFFFF" stroke-width="4" width="13.745" height="5.868"/>
			<rect x="53.195" y="35.384" fill="#73CAC5" stroke="#FFFFFF" stroke-width="4" width="13.745" height="5.868"/>
			<rect x="53.195" y="21.987" fill="#3D4959" stroke="#FFFFFF" stroke-width="4" width="26.589" height="5.868"/>
			<rect x="11.143" y="52.05" fill="#73CAC5" stroke="#FFFFFF" stroke-width="4" width="36.457" height="5.868"/>
			<rect x="32.801" y="25.257" fill="#73CAC5" stroke="#FFFFFF" stroke-width="4" width="13.767" height="5.868"/>
			<rect x="32.801" y="38.654" fill="#73CAC5" stroke="#FFFFFF" stroke-width="4" width="13.767" height="5.867"/>
			<rect x="11.143" y="11.861" fill="#3D4959" stroke="#FFFFFF" stroke-width="4" width="36.457" height="5.867"/>
			<rect x="32.823" y="45.352" fill="#73CAC5" stroke="#FFFFFF" stroke-width="4" width="13.745" height="5.868"/>
			<rect x="32.823" y="18.559" fill="#73CAC5" stroke="#FFFFFF" stroke-width="4" width="13.745" height="5.868"/>
			<rect x="19.979" y="31.955" fill="#3D4959" stroke="#FFFFFF" stroke-width="4" width="26.589" height="5.868"/>
			<rect x="53.195" y="68.875" fill="#73CAC5" stroke="#FFFFFF" stroke-width="4" width="13.767" height="5.868"/>
			<rect x="53.195" y="55.479" fill="#73CAC5" stroke="#FFFFFF" stroke-width="4" width="13.767" height="5.868"/>
			<rect x="52.4" y="82.272" fill="#3D4959" stroke="#FFFFFF" stroke-width="4" width="36.457" height="5.868"/>
			<rect x="53.195" y="48.78" fill="#73CAC5" stroke="#FFFFFF" stroke-width="4" width="13.745" height="5.868"/>
			<rect x="53.195" y="75.574" fill="#73CAC5" stroke="#FFFFFF" stroke-width="4" width="13.745" height="5.868"/>
			<rect x="53.195" y="62.177" fill="#3D4959" stroke="#FFFFFF" stroke-width="4" width="26.589" height="5.868"/>
			<rect x="11.143" y="92.24" fill="#3D4959" stroke="#FFFFFF" stroke-width="4" width="36.457" height="5.868"/>
			<rect x="32.801" y="65.447" fill="#73CAC5" stroke="#FFFFFF" stroke-width="4" width="13.767" height="5.867"/>
			<rect x="32.801" y="78.843" fill="#73CAC5" stroke="#FFFFFF" stroke-width="4" width="13.767" height="5.868"/>
			<rect x="32.823" y="85.542" fill="#73CAC5" stroke="#FFFFFF" stroke-width="4" width="13.745" height="5.868"/>
			<rect x="32.823" y="58.749" fill="#73CAC5" stroke="#FFFFFF" stroke-width="4" width="13.745" height="5.868"/>
			<rect x="19.979" y="72.145" fill="#3D4959" stroke="#FFFFFF" stroke-width="4" width="26.589" height="5.868"/>
			<rect x="46.362" y="3.63" fill="#DE6A26" stroke="#FFFFFF" stroke-width="3" width="7.018" height="78.944"/>
		</g>
	</g>
	<path fill="none" stroke="#3D4959" stroke-width="3" d="M83.816,45.048c0-18.728-15.183-33.91-33.911-33.91
		S15.995,26.32,15.995,45.048c0,18.728,15.183,33.91,33.911,33.91S83.816,63.775,83.816,45.048z"/>
</g>
</svg>
