<?xml version="1.0" encoding="utf-8"?>
<!-- Generator: Adobe Illustrator 19.0.0, SVG Export Plug-In . SVG Version: 6.00 Build 0)  -->
<svg version="1.1" id="Layer_1" xmlns="http://www.w3.org/2000/svg" xmlns:xlink="http://www.w3.org/1999/xlink" x="0px" y="0px"
	 viewBox="0 0 787.6 791.6" style="enable-background:new 0 0 787.6 791.6;" xml:space="preserve" overflow="visible" zoomAndPan="disable">
<style type="text/css">
	.st0{clip-path:url(#XMLID_25_);}
	.st1{fill:#3C4858;}
</style>
<g id="XMLID_89_">
	<defs>
		<path id="XMLID_86_" d="M600.7,778.7H186.1C88.7,778.7,9,699,9,601.6V183.1C9,85.7,88.7,6,186.1,6h414.6
			c97.4,0,177.1,79.7,177.1,177.1v418.5C777.8,699,698.1,778.7,600.7,778.7z"/>
	</defs>
	<clipPath id="XMLID_25_">
		<use xlink:href="#XMLID_86_"  style="overflow:visible;"/>
	</clipPath>
	<g id="XMLID_88_" class="st0">
		<path id="XMLID_81_" class="st1" d="M468.9,6l308.9,447.4V159.3c0,0-30.3-153.3-169.6-153.3S468.9,6,468.9,6z"/>
		<path id="XMLID_84_" class="st1" d="M399.6,6l126.1,180.5L204.3,545.3L61.9,65.1c0,0,3.1-57.6,89.5-59.1S399.6,6,399.6,6z"/>
		<path id="XMLID_83_" class="st1" d="M9,94.7v562.6c0,0,32.7,121.4,114.4,121.4s85.5,0,85.5,0L9,94.7z"/>
		<polygon id="XMLID_85_" class="st1" points="215.2,614.5 265,778.7 416.8,778.7 521,270.6 		"/>
		<path id="XMLID_87_" class="st1" d="M577.1,270.6L777.8,532v95.7c0,0-21.8,151-154.5,151s-154.5,0-154.5,0L577.1,270.6z"/>
	</g>
</g>
</svg>
