<?xml version="1.0" encoding="utf-8"?>
<!-- Generator: Adobe Illustrator 19.0.0, SVG Export Plug-In . SVG Version: 6.00 Build 0)  & HAND EDITED FFS-->
<svg version="1.1" id="Layer_1" xmlns="http://www.w3.org/2000/svg" xmlns:xlink="http://www.w3.org/1999/xlink" x="0px" y="0px"
	 viewBox="0 0 396 189.5" style="enable-background:new 0 0 396 189.5;" xml:space="preserve" overflow="visible" zoomAndPan="disable">
<style type="text/css">
	.st0{fill:none;stroke:#3D4959;stroke-width:26.255;stroke-linecap:round;stroke-linejoin:round;stroke-miterlimit:10;}
</style>
<path id="XMLID_4_" class="st0" d="M268.9,168.5H374l-47-47c0,0,0-5,0-26.7s-20.5-20.5-20.5-20.5s-115.4,0-135.1,0
	s-20.5,20.5-20.5,20.5s0,31.8,0,53.4s20.5,20.5,20.5,20.5l202.7-0.2l-47-49"/>
<path id="XMLID_3_" class="st0" d="M127.1,117.7H22l47-47c0,0,0-5,0-26.7s20.5-20.5,20.5-20.5s115.4,0,135.1,0S245.2,44,245.2,44
	s0,31.8,0,53.4s-20.5,20.5-20.5,20.5L22,117.7l47-49"/>
</svg>
