<?xml version="1.0" encoding="utf-8"?>
<!-- Generator: Adobe Illustrator 12.0.0, SVG Export Plug-In . SVG Version: 6.00 Build 51448)  -->
<!DOCTYPE svg PUBLIC "-//W3C//DTD SVG 1.1//EN" "http://www.w3.org/Graphics/SVG/1.1/DTD/svg11.dtd" [
	<!ENTITY ns_svg "http://www.w3.org/2000/svg">
	<!ENTITY ns_xlink "http://www.w3.org/1999/xlink">
]>
<svg  version="1.1" xmlns="&ns_svg;" xmlns:xlink="&ns_xlink;" width="468" height="120" viewBox="-36.5 34.25 468 120"
	 overflow="visible" enable-background="new -36.5 34.25 468 120" xml:space="preserve">
<g id="LogoGroup" zoomAndPan="disable">
	<g>
		<rect x="104.026" y="71.343" fill-rule="evenodd" clip-rule="evenodd" fill="none" width="181.808" height="45.429"/>
		<path fill-rule="evenodd" clip-rule="evenodd" fill="#02343F" d="M245.1,73.424h-3.365l-13.59,34.513h4.047l4.232-10.95h13.783
			l4.279,10.95h4.141L245.1,73.424z M237.828,93.398l4.053-10.644c0.643-1.802,1.131-3.456,1.482-4.959
			c0.553,1.958,1.08,3.611,1.6,4.962l3.998,10.64H237.828z"/>
		<polygon fill-rule="evenodd" clip-rule="evenodd" fill="#02343F" points="211.932,73.571 207.932,73.571 207.932,107.937 
			227.094,107.937 227.094,104.324 211.932,104.324 		"/>
		<polygon fill-rule="evenodd" clip-rule="evenodd" fill="#02343F" points="147.426,73.564 142.7,73.564 127.101,90.602 
			127.101,73.576 123.103,73.576 123.103,107.939 127.101,107.939 127.101,94.465 130.701,91.27 143.243,107.937 147.939,107.937 
			133.603,88.505 		"/>
		<polygon fill-rule="evenodd" clip-rule="evenodd" fill="#02343F" points="189.345,73.571 185.345,73.571 185.345,107.937 
			204.51,107.937 204.51,104.324 189.345,104.324 		"/>
		<polygon fill-rule="evenodd" clip-rule="evenodd" fill="#02343F" points="147.941,107.937 147.939,107.937 147.944,107.943 		"/>
		<path fill-rule="evenodd" clip-rule="evenodd" fill="#02343F" d="M164.369,73.016c-5.086,0-9.006,1.535-11.766,4.621
			c-2.755,3.087-4.137,7.417-4.137,13.008c0,5.64,1.377,10.014,4.125,13.109c2.749,3.09,6.655,4.646,11.719,4.646
			c4.946,0,8.822-1.575,11.602-4.729c2.781-3.152,4.171-7.479,4.171-12.976l0.01,0.004c0-5.514-1.381-9.839-4.154-12.984
			C173.163,74.588,169.3,73.016,164.369,73.016z M172.95,101.303c-1.949,2.399-4.822,3.604-8.626,3.604
			c-3.779,0-6.671-1.204-8.652-3.611c-1.98-2.406-2.974-5.94-2.974-10.6l0.016-0.012c0-4.589,0.987-8.084,2.97-10.491
			c1.983-2.408,4.88-3.611,8.686-3.611c3.794,0,6.656,1.196,8.59,3.592c1.933,2.388,2.902,5.894,2.902,10.522
			C175.861,95.363,174.892,98.902,172.95,101.303z"/>
		<path fill="#02343F" d="M258.332,116.985c-1.477,0-2.633-0.209-3.48-0.634v-3.406c1.115,0.314,2.277,0.47,3.48,0.47
			c1.551,0,2.734-0.47,3.541-1.406c0.803-0.94,1.203-2.291,1.203-4.065V73.571h3.998v34.039c0,2.978-0.75,5.279-2.252,6.918
			C263.316,116.168,261.154,116.985,258.332,116.985z"/>
		<path fill="#FFFFFF" d="M227.094,107.939h-2.5l1.436-3.644h1.086"/>
		<path fill="#FFFFFF" d="M226.426,102.873c0,0-1.152,5.529-1.543,5.794c-0.389,0.27,1.711,2.914,2.609-0.291
			c0.902-3.203,2.318-5.108,1.105-5.301c-1.215-0.194-2.176-0.207-2.176-0.207L226.426,102.873z"/>
	</g>
	<rect x="-80.5" y="-8.75" fill="none" width="90" height="201"/>
</g>
<g id="MSGGroup">
	<rect id="THISISMSGBG" x="335.167" y="77.25" fill="#FAFAFA" width="75.333" height="34"/>
	<g>
		
			<path id="XMLID_4_" fill="none" stroke="#3D4959" stroke-width="4" stroke-linecap="round" stroke-linejoin="round" stroke-miterlimit="10" d="
			M387.321,108.61h20.96l-9.372-9.373c0,0,0-0.998,0-5.325c0-4.328-4.089-4.088-4.089-4.088s-23.015,0-26.943,0
			s-4.089,4.088-4.089,4.088s0,6.341,0,10.649c0,4.308,4.089,4.088,4.089,4.088l40.425-0.039l-9.373-9.772"/>
		
			<path id="XMLID_3_" fill="none" stroke="#3D4959" stroke-width="4" stroke-linecap="round" stroke-linejoin="round" stroke-miterlimit="10" d="
			M359.043,98.479h-20.961l9.374-9.373c0,0,0-0.997,0-5.325s4.088-4.088,4.088-4.088s23.014,0,26.943,0
			c3.928,0,4.107,4.088,4.107,4.088s0,6.342,0,10.65c0,4.307-4.088,4.088-4.088,4.088l-40.425-0.04l9.374-9.771"/>
	</g>
</g>
<g id="pulsarGroup">
	<rect id="THISISPULSARBG" x="-20.167" y="80.583" fill="#FAFAFA" width="101.333" height="36.333"/>
	<path fill="none" d="M-20.623,94.051h46.772c0.874-3.742,1.622-3.929,2.245-0.561c0.624,3.368,0.936,3.866,0.936,1.497
		c0-2.37,0.188-2.807,0.562-1.31c0.374,1.497,0.562,1.746,0.562,0.748c0-0.998,0.374,1.185,1.122,6.548
		c0.749,5.363,1.185,1.621,1.31-11.225c0.125-12.847,0.375-9.105,0.748,11.225c0.375,20.33,0.811,19.084,1.311-3.742
		c0.748-34.237,0.373-2.057,1.871-1.87c1.496,0.187,0.187,0.187,1.496-1.871c0.873-1.372,1.123-0.874,0.748,1.497
		c1.123,0.748,1.497-1.123,1.871-3.181c0.375-2.058,0.375,1.871,1.684,2.058h39.289"/>
	<path id="pulsar" fill="none" d="M-20.623,94.051h46.772c0.874-3.742,1.622-3.929,2.245-0.561c0.624,3.368,0.936,3.866,0.936,1.497
		c0-2.37,0.188-2.807,0.562-1.31c0.374,1.497,0.562,1.746,0.562,0.748c0-0.998,0.374,1.185,1.122,6.548
		c0.749,5.363,1.185,1.621,1.31-11.225c0.125-12.847,0.375-9.105,0.748,11.225c0.375,20.33,0.811,19.084,1.311-3.742
		c0.748-34.237,0.373-2.057,1.871-1.87c1.496,0.187,0.187,0.187,1.496-1.871c0.873-1.372,1.123-0.874,0.748,1.497
		c1.123,0.748,1.497-1.123,1.871-3.181c0.375-2.058,0.375,1.871,1.684,2.058h39.289"/>
</g>
</svg>
