<?xml version="1.0" encoding="utf-8"?>
<!-- Generator: YourMum 4.2.0, SVG Export Plug-In . SVG Version: 6.00 Build 0)  -->
<svg xmlns="http://www.w3.org/2000/svg" xmlns:xlink="http://www.w3.org/1999/xlink" version="1.1" id="Capa_1" x="0px" y="0px" viewBox="3 0 89.536 114.75" style="enable-background:new 3 0 89.536 114.75;" xml:space="preserve" overflow="visible" zoomAndPan="disable">
<g>
	<path fill="#FFFFFF" d="M78.558,42.367c0-18.728-15.182-33.911-33.91-33.911c-18.729,0-33.911,15.183-33.911,33.911
		c0,18.727,15.182,33.91,33.911,33.91C63.375,76.276,78.558,61.094,78.558,42.367z"/>
	<path fill="none" stroke="#3D4959" stroke-width="3" d="M78.846,42.185c0-18.728-15.182-33.911-33.91-33.911
		c-18.729,0-33.911,15.183-33.911,33.911c0,18.727,15.182,33.91,33.911,33.91C63.664,76.094,78.846,60.912,78.846,42.185z"/>
	<g>
		<path fill="#3D4959" d="M55.107,21.159c0.946,0.473,1.419,1.183,2.129,1.656c0.236,0.473,0.709,0.709,1.183,1.183
			c4.021,4.967,2.602,12.064-2.365,16.085c-3.312,2.602-7.097,4.258-10.408,6.624c0.236,2.838,0.236,5.677,0.709,8.516
			c-1.656,0-3.075,0.709-4.731,0.473c-0.236,0-0.709-0.473-0.709-0.71c-0.473-3.312-0.709-6.623-0.709-9.935
			c0-0.237,0.236-0.71,0.473-0.946c3.548-2.365,6.86-3.548,10.408-5.914c3.785-2.839,4.731-8.042,1.656-11.591
			c-1.892-1.893-4.258-3.312-7.096-3.785c-1.893-0.237-3.312-0.71-5.204-0.946c-0.946,0-1.893,0.236-2.838-0.236
			c-0.237-0.237-0.71-0.473-0.71-0.473c0.473-1.183,0.71-2.602,1.183-3.785c0.236-0.236,0.709-0.473,0.946-0.473
			c3.312-0.236,6.387,0.71,9.699,1.656C51.085,19.029,53.214,19.976,55.107,21.159L55.107,21.159z"/>
		<path fill="#3D4959" d="M46.553,59.99c0.702,0.702,1.054,1.668,1.054,2.896c0,1.288-0.366,2.313-1.097,3.073
			c-0.731,0.76-1.741,1.141-3.028,1.141c-2.575,0-3.863-1.346-3.863-4.038c0-1.229,0.366-2.224,1.097-2.984
			c0.731-0.761,1.741-1.142,3.028-1.142C44.915,58.937,45.851,59.288,46.553,59.99z"/>
	</g>
</g>
</svg>
