<svg xmlns="http://www.w3.org/2000/svg" xmlns:xlink="http://www.w3.org/1999/xlink" version="1.1" id="Capa_1" x="0px" y="0px" width="169" height="132" viewBox="0 0 169 132" style="enable-background:new 0 0 410.23 410.23;" xml:space="preserve" overflow="visible" zoomAndPan="disable">
		<path fill="#FFFFFF" d="M121.287,41.9c-1.254-3.575-3.449-6.793-6.356-9.32c-2.911-2.521-6.413-4.245-10.121-4.979
			c-1.402-0.276-2.838-0.415-4.277-0.415c-4.194,0-8.27,1.187-11.793,3.427c-2.123,1.354-3.983,3.044-5.518,5.004
			c-1.535-1.953-3.396-3.645-5.516-4.991c-3.52-2.241-7.596-3.428-11.787-3.428c-3.492,0-6.997,0.868-10.134,2.497
			c-3.135,1.633-5.854,4.001-7.865,6.861c-2.055,2.924-3.31,6.205-3.721,9.741c-0.364,3.097-0.083,6.422,0.833,9.881
			c1.813,6.856,5.828,13.112,8.88,17.154c6.629,8.775,15.745,16.75,27.867,24.365l1.449,0.906l1.449-0.906
			c14.91-9.371,25.319-19.26,31.817-30.239c3.737-6.313,5.685-11.936,5.952-17.19C122.596,47.338,122.207,44.522,121.287,41.9z
			 M117.008,49.988c-0.22,4.353-1.921,9.166-5.199,14.7c-5.841,9.863-15.199,18.865-28.581,27.474
			C72.395,85.191,64.217,77.947,58.255,70.05c-2.755-3.65-6.374-9.262-7.96-15.262c-0.74-2.796-0.973-5.438-0.689-7.858
			c0.307-2.63,1.242-5.062,2.774-7.245c1.506-2.146,3.556-3.926,5.917-5.158c2.365-1.232,5.001-1.883,7.622-1.883
			c3.153,0,6.221,0.894,8.866,2.579c2.576,1.641,4.651,3.951,5.995,6.689l2.448,4.992l2.441-4.992
			c1.34-2.744,3.415-5.062,5.993-6.702c2.649-1.686,5.717-2.579,8.87-2.579c1.086,0,2.17,0.108,3.22,0.313
			c2.784,0.549,5.414,1.845,7.606,3.753c2.195,1.902,3.849,4.321,4.791,7.002C116.832,45.653,117.123,47.765,117.008,49.988z
			 M83.259,155.34l-14.196-14.918l-6.466,6.83l20.663,21.742l20.669-21.742l-6.473-6.83L83.259,155.34z M83.259,122.395
			l-14.196-14.918l-6.466,6.83l20.663,21.742l20.669-21.742l-6.473-6.83L83.259,122.395z M84.044-31.874l14.197,14.918l6.47-6.83
			L84.044-45.528L63.378-23.786l6.473,6.83L84.044-31.874z M84.044,1.071l14.197,14.912l6.47-6.831L84.044-12.59L63.378,9.152
			l6.473,6.831L84.044,1.071z"/>
<path fill="rgba(255,255,255,0.2)" d="M134.039,178.521c0,5.609-4.547,10.156-10.155,10.156H42.64c-5.609,0-10.156-4.547-10.156-10.156V-55.056
	c0-5.609,4.547-10.155,10.156-10.155h81.244c5.608,0,10.155,4.546,10.155,10.155V178.521z"/>
</svg>
