<?xml version="1.0" encoding="utf-8"?>
<!-- Generator: YourMum 4.2.0, SVG Export Plug-In . SVG Version: 6.00 Build 0)  -->
<svg xmlns="http://www.w3.org/2000/svg" xmlns:xlink="http://www.w3.org/1999/xlink" version="1.1" id="Capa_1" x="0px" y="0px" viewBox="0 0 313.083 214.96" style="enable-background:new 0 0 313.083 214.96;" xml:space="preserve" overflow="visible" zoomAndPan="disable">
<path fill="#FFFFFF" stroke="#3D4959" stroke-width="12" d="M0.024,106.852c17.718,0.07,50.932-53.256,156.881-60.135
	c105.863,6.879,138.45,60.907,156.173,60.925c-17.723-0.018-44.041,53.724-156.173,60.603
	C44.689,161.365,17.742,106.922,0.024,106.852z"/>
<circle fill="#3D4959" stroke="#3D4959" stroke-width="12" cx="156.551" cy="107.48" r="52.691"/>
	<path fill="#FFFFFF" d="M172.728,73.776c2.093,6.189-0.021,9.497-3.006,8.083c-17.091-7.273-32.82-0.852-39.35,8.304
		c-1.24,1.648-4.92,1.46-9.519,0.942l0,0c-4.543-0.529-8.149-1.896-6.895-4.708c6.563-14.585,24.205-26.425,46.148-24.558
		C164.162,62.047,170.676,67.571,172.728,73.776L172.728,73.776z"/>
<rect x="24.884" y="97.147" transform="matrix(0.7071 -0.7071 0.7071 0.7071 -30.1475 142.1777)" fill="none" stroke="none" width="263.332" height="20.666"/>
</svg>
