<svg xmlns="http://www.w3.org/2000/svg" viewBox="0 0 468.228 117.552" overflow="visible" zoomAndPan="disable"><path fill="none" d="M0 0h468.23v117H0z"/><path fill="#02343F" d="M113.1 94.24H101L68.7 51.32l-9.27 8.23v34.7h-10.3V5.75h10.3V49.6L99.6 5.72h12.17L76.17 44.2l36.94 50.06zm82.78-44.4c0 14.16-3.58 25.3-10.74 33.42S168 95.43 155.26 95.43c-13.04 0-23.1-4-30.18-11.96-7.08-7.97-10.63-19.23-10.63-33.76 0-14.4 3.56-25.55 10.66-33.5s17.2-11.9 30.3-11.9c12.7 0 22.65 4.05 29.8 12.1 7.14 8.1 10.7 19.24 10.7 33.44zm-70.53 0c0 12 2.56 21.1 7.66 27.3s12.55 9.3 22.28 9.3c9.8 0 17.2-3.1 22.22-9.28 5-6.18 7.5-15.3 7.5-27.32 0-11.92-2.5-20.95-7.48-27.1-4.98-6.17-12.35-9.25-22.12-9.25-9.8 0-17.26 3.1-22.37 9.3s-7.65 15.2-7.65 27.02zm84.08 44.4V5.74h10.3v79.2h39.06v9.3h-49.4zm58.17 0V5.74h10.3v79.2h39.05v9.3H267.6zm119.9 0l-11.02-28.2h-35.5l-10.9 28.2h-10.42l35-88.88h8.67l34.83 88.88H387.5zM373.27 56.8l-10.3-27.4c-1.34-3.48-2.7-7.74-4.12-12.78-.9 3.87-2.16 8.13-3.82 12.77L344.6 56.8h28.67z"/><path fill="#02343F" d="M397.4 117.55c-3.8 0-6.78-.54-8.96-1.63v-8.77c2.87.8 5.86 1.2 8.96 1.2 4 0 7.04-1.2 9.12-3.62 2.07-2.42 3.1-5.9 3.1-10.47V5.74h10.3V93.4c0 7.67-1.93 13.6-5.8 17.82-3.88 4.22-9.45 6.33-16.72 6.33z"/><path fill="#FFF" d="M316.95 94.25h-6.44l3.7-9.38h2.8"/><path fill="#FFF" d="M315.23 81.2s-2.97 14.24-3.97 14.93 4.4 7.5 6.72-.75 5.97-13.16 2.84-13.66-5.6-.53-5.6-.53z"/></svg>