<?xml version="1.0" encoding="utf-8"?>
<!-- Generator: Adobe Illustrator 19.0.0, SVG Export Plug-In . SVG Version: 6.00 Build 0)  -->
<svg version="1.1" id="Layer_1" xmlns="http://www.w3.org/2000/svg" xmlns:xlink="http://www.w3.org/1999/xlink" x="0px" y="0px"
	 viewBox="0 0 434.5 711" style="enable-background:new 0 0 434.5 711;" xml:space="preserve"  overflow="visible" zoomAndPan="disable">
<style type="text/css">
	.st0{fill:none;stroke:#3D4959;stroke-width:90;stroke-miterlimit:10;}

		.st1{display:none;fill:#3D4959;stroke:#3D4959;stroke-width:101.6997;stroke-linecap:round;stroke-linejoin:round;stroke-miterlimit:10;}
	.st2{fill:#3D4959;stroke:#3D4959;stroke-width:101.6997;stroke-linecap:round;stroke-linejoin:round;stroke-miterlimit:10;}
	.st3{fill:#3D4959;}
</style>
<circle id="XMLID_352_" class="st0" cx="220.4" cy="157.5" r="100.4"/>
<g id="XMLID_361_">
	<path id="XMLID_362_" class="st1" d="M326,444.2h-10.6c2.4,4.2,4.7,8.4,6.9,12.8L326,444.2z"/>
	<path id="XMLID_363_" class="st1" d="M111.5,444.2l3.7,12.8c2.2-4.4,4.5-8.6,6.9-12.8H111.5z"/>
	<path id="XMLID_364_" class="st2" d="M218.8,375.3c-42.6,0-73.9,29.4-96.7,69h193.4C292.7,404.7,261.4,375.3,218.8,375.3z"/>
	<path id="XMLID_365_" class="st2" d="M170.1,648.7L115.2,457c-40.8,80.6-50.7,191.7-50.7,191.7H170.1z"/>
	<path id="XMLID_366_" class="st2" d="M373.1,648.7c0,0-9.9-111.1-50.7-191.7l-54.7,191.7H373.1z"/>
</g>
<rect id="XMLID_326_" x="88.8" y="444.2" class="st3" width="274.3" height="255.3"/>
<rect id="XMLID_1_" x="136.8" y="85.9" class="st3" width="168" height="150.7"/>
</svg>
